<svg viewBox="0 0 32 32" xmlns="http://www.w3.org/2000/svg">
  <path fill-rule="evenodd" clip-rule="evenodd" d="M27.7298 22.425L21.9587 16.6551C23.6314 14.647 24.4655 12.0713 24.2875 9.46378C24.1095 6.85631 22.933 4.41786 21.0029 2.65567C19.0728 0.893482 16.5377 -0.0567572 13.9248 0.00262448C11.3119 0.0620061 8.82254 1.12644 6.97449 2.97449C5.12644 4.82254 4.06201 7.31193 4.00262 9.92479C3.94324 12.5377 4.89348 15.0728 6.65567 17.0029C8.41786 18.933 10.8563 20.1095 13.4638 20.2875C16.0713 20.4655 18.647 19.6314 20.6551 17.9587L26.425 23.7298C26.5107 23.8155 26.6124 23.8834 26.7243 23.9298C26.8363 23.9761 26.9563 24 27.0774 24C27.1986 24 27.3185 23.9761 27.4305 23.9298C27.5424 23.8834 27.6441 23.8155 27.7298 23.7298C27.8155 23.6441 27.8834 23.5424 27.9298 23.4305C27.9761 23.3185 28 23.1986 28 23.0774C28 22.9563 27.9761 22.8363 27.9298 22.7243C27.8834 22.6124 27.8155 22.5107 27.7298 22.425ZM5.86963 10.1683C5.86963 8.527 6.35634 6.92253 7.26821 5.55782C8.18009 4.1931 9.47616 3.12944 10.9926 2.50133C12.5089 1.87322 14.1775 1.70888 15.7873 2.02909C17.3971 2.34929 18.8758 3.13967 20.0364 4.30026C21.197 5.46086 21.9874 6.93954 22.3076 8.54933C22.6278 10.1591 22.4634 11.8277 21.8353 13.3441C21.2072 14.8605 20.1435 16.1566 18.7788 17.0684C17.4141 17.9803 15.8097 18.467 14.1683 18.467C11.9681 18.4646 9.85874 17.5895 8.30296 16.0337C6.74718 14.4779 5.87207 12.3685 5.86963 10.1683Z"/>
</svg>
